<svg id="eTRBo0hPvzU1" xmlns="http://www.w3.org/2000/svg" xmlns:xlink="http://www.w3.org/1999/xlink" viewBox="0 0 140 140" shape-rendering="geometricPrecision" text-rendering="geometricPrecision">
  <path id="eTRBo0hPvzU2" d="M275.781716,192.875943C250.514125,174.346377,246.210135,143.004617,263.327883,133.464792Q280.445631,123.924967,295.153535,144.867521Q311.821164,135.029989,322.349327,141.768013C332.87749,148.506037,334.614906,160.911025,324.092465,175.642443C300.790975,208.26453,234.770084,237.003035,205.643221,241.663333" transform="matrix(1 0 0 1 -198.239478 -115.470065)" fill="none" stroke="rgb(0,0,0)" stroke-width="1.28" stroke-miterlimit="1" />
  <path id="eTRBo0hPvzU3" d="M276.286586,231.636306C259.133383,226.466848,241.742349,189.841283,255.255473,179.897663Q268.768597,169.954043,285.450626,190.280638Q304.208678,176.838088,314.407263,190.096248C324.605848,203.354408,294.379691,235.395913,276.286586,231.636306Z" transform="matrix(0.869651 0 0 0.869651 -152.652903 -128.288845)" fill="rgb(141,213,136)" stroke="none" stroke-width="1.28" />
</svg>
