<?xml version="1.0" encoding="utf-8"?>
<!-- Generator: Adobe Illustrator 25.2.0, SVG Export Plug-In . SVG Version: 6.00 Build 0)  -->
<svg version="1.1" id="Layer_1" xmlns="http://www.w3.org/2000/svg" xmlns:xlink="http://www.w3.org/1999/xlink" x="0px" y="0px" viewBox="0 0 1500 1000" style="enable-background:new 0 0 1500 1000;" xml:space="preserve">
  <style type="text/css">
    .st0 {
      fill: #E6E6E6;
    }

    .st1 {
      fill: #FFFFFF;
    }

    .st2 {
      clip-path: url(#SVGID_2_);
      fill: #EEDACF;
    }

    .st3 {
      clip-path: url(#SVGID_2_);
      fill: #CC9C6B;
    }

    .st4 {
      fill: #FFDAEE;
    }

    .st5 {
      clip-path: url(#SVGID_4_);
      fill: #CC9C6B;
    }

    .st6 {
      clip-path: url(#SVGID_4_);
      fill: #738593;
    }

    .st7 {
      clip-path: url(#SVGID_6_);
      fill: #EEDACF;
    }

    .st8 {
      clip-path: url(#SVGID_6_);
      fill: #CC9C6B;
    }

    .st9 {
      clip-path: url(#SVGID_8_);
      fill: #CC9C6B;
    }

    .st10 {
      clip-path: url(#SVGID_8_);
      fill: #738593;
    }
  </style>
  <rect id="BG_8_" class="st0" width="1500" height="1000" />
  <g>
    <g>
      <g>
        <defs>
          <rect id="SVGID_3_" x="-847.79" y="269.88" width="613.54" height="613.54" />
        </defs>
        <clipPath id="SVGID_2_">
          <use xlink:href="#SVGID_3_" style="overflow:visible;" />
        </clipPath>
        <path style="clip-path:url(#SVGID_2_);fill:#738593;" d="M-559.27,908.66c15.61-25.38,21.62-40.15,45.82-76.89
				c23.19-35.21,34.79-52.82,49.7-66.79c24.39-22.86,51.28-34.45,104.07-56.69c63.76-26.87,63.87-19.17,84.65-34.17
				c53.72-38.78,68.65-101.58,69.9-107.18c9.54-42.75-4.84-55.79,6.99-73.78c27.48-41.81,149.32-38.56,215.91,14.76
				c102.21,81.85,98.35,300.99,5.44,431.81c-177.87,250.46-653.92,137.54-664.8,76.11C-644.74,998.1-608.42,988.57-559.27,908.66z" />
      </g>
    </g>
  </g>
  <g>
    <rect id="BG_3_" x="361" y="110.5" class="st1" width="790" height="790" />
    <g>
      <defs>
        <rect id="SVGID_7_" x="361" y="110.5" width="790" height="790" />
      </defs>
      <clipPath id="SVGID_4_">
        <use xlink:href="#SVGID_7_" style="overflow:visible;" />
      </clipPath>
      <path class="st5" d="M340,474.5c15.63,1.92,16.1-53.54,78-119c55-58.17,124.66-88.43,159-103c62.48-26.51,70.99-17.22,104-39
			c56.79-37.47,109.24-116.19,91-164c-29.51-77.35-263.07-123.75-394-12C217.35,174.62,304.59,470.16,340,474.5z" />
      <path class="st6" d="M732.5,933c20.1-32.68,27.84-51.69,59-99c29.86-45.34,44.8-68.01,64-86c31.41-29.43,66.03-44.35,134-73
			c82.1-34.6,82.24-24.68,109-44c69.16-49.94,88.39-130.79,90-138c12.28-55.04-6.23-71.84,9-95c35.39-53.84,192.26-49.65,278,19
			c131.6,105.38,126.63,387.55,7,556c-229.03,322.49-841.99,177.1-856,98C622.45,1048.16,669.22,1035.88,732.5,933z" />
    </g>
    <path class="st4" d="M592.38,366.72c-31.07,16.36-25.89,83.12-16,120c9.52,35.49,27.15,57.3,36,68c16.23,19.62,30.48,36.85,49,36
		c28.55-1.31,45.49-44.58,48-51c19.21-49.07-3.62-95.99-8-105c-3.89-7.99-30.2-62.08-80-70
		C611.79,363.2,602.02,361.65,592.38,366.72z" />
    <g>
      <path d="M509.71,368.74c3.33,31.06,4.4,62.37,3.59,93.66c-0.09,3.91-0.24,7.82-0.37,11.73c-0.18,3.91-0.37,7.82-0.61,11.72
			c-0.45,7.81-1.04,15.62-1.72,23.42c-1.37,15.6-3.51,31.15-5.33,46.56c-0.93,7.7-1.79,15.37-1.93,22.93
			c-0.1,1.9,0.04,3.75,0.06,5.63c0,0.94,0.14,1.85,0.21,2.77c0.1,0.92,0.12,1.85,0.28,2.75c0.32,1.8,0.53,3.63,1.05,5.36
			c0.25,0.87,0.4,1.77,0.72,2.61l0.9,2.54c0.25,0.87,0.72,1.64,1.08,2.47l0.57,1.22l0.29,0.61l0.35,0.58
			c0.94,1.54,1.81,3.13,2.94,4.56l0.8,1.1c0.27,0.37,0.59,0.7,0.88,1.05c0.6,0.68,1.17,1.4,1.8,2.06l1.94,1.93
			c0.64,0.65,1.38,1.21,2.06,1.82c2.81,2.36,5.87,4.48,9.15,6.25c3.25,1.82,6.67,3.41,10.22,4.71c1.75,0.71,3.58,1.24,5.37,1.85
			c1.83,0.5,3.64,1.08,5.51,1.5c3.69,0.96,7.47,1.63,11.25,2.29c7.58,1.21,15.29,1.9,23.03,2.17c15.48,0.65,31.06-0.26,46.61-1.63
			c-15.34,2.93-30.92,4.79-46.65,5.12c-7.86,0.14-15.75-0.18-23.62-1.04c-3.93-0.46-7.87-1.05-11.76-1.9
			c-1.96-0.37-3.89-0.91-5.83-1.37c-1.92-0.58-3.86-1.07-5.76-1.75c-7.61-2.53-15.06-6.16-21.47-11.38c-0.79-0.67-1.62-1.28-2.36-2
			l-2.25-2.15c-0.73-0.74-1.4-1.53-2.1-2.3c-0.34-0.39-0.71-0.76-1.02-1.18l-0.95-1.24c-1.32-1.61-2.39-3.42-3.51-5.19l-0.42-0.67
			l-0.35-0.7l-0.7-1.41c-0.44-0.95-0.99-1.86-1.32-2.86l-1.11-2.95c-0.2-0.49-0.33-1-0.46-1.5l-0.4-1.52
			c-0.61-2.01-0.87-4.06-1.24-6.11c-0.19-1.02-0.22-2.04-0.34-3.06c-0.08-1.02-0.24-2.05-0.25-3.06c-0.04-2.02-0.2-4.07-0.11-6.07
			c0.1-8.05,0.93-15.9,1.82-23.69l3-23.22c1-7.72,1.86-15.43,2.7-23.15c1.71-15.44,2.87-30.94,3.86-46.46
			C509.63,431.12,510.11,399.97,509.71,368.74z" />
      <path d="M612.21,377.17c-1.36,0.85-2.54,1.95-3.57,3.18c-1.04,1.22-1.83,2.62-2.59,4.03c-1.42,2.87-2.42,5.93-3.22,9.02
			c-1.58,6.21-2.41,12.57-3.08,18.93c-1.24,12.74-1.61,25.55-1.99,38.35c-0.19,6.4-0.27,12.8-0.36,19.21
			c-0.08,6.4-0.2,12.81-0.23,19.21c-0.04,3.2-0.03,6.4,0,9.59c0,3.2,0.08,6.39,0.14,9.59c0.16,6.38,0.39,12.77,0.9,19.1
			c0.51,6.33,1.21,12.65,2.58,18.73c0.69,3.04,1.6,5.97,2.78,8.78c1.17,2.8,2.68,5.56,4.25,8.26c6.33,10.77,14.6,20.44,24.07,28.5
			c4.75,4.01,9.83,7.61,15.24,10.48c5.39,2.91,11.16,4.97,16.98,5.94c5.85,0.97,11.71,0.46,17.15-1.62
			c5.46-2.07,10.5-5.49,14.96-9.58c9.01-8.19,15.95-18.8,21.36-30.01c5.41-11.26,9.44-23.24,12.02-35.55
			c2.58-12.3,3.88-24.91,3.53-37.51c-0.34-12.58-2.25-25.17-6.16-37.18c-3.86-12.02-9.93-23.29-17.5-33.5
			c-7.63-10.16-16.66-19.32-26.75-27.13c-5.05-3.9-10.37-7.47-15.92-10.63c-5.56-3.14-11.34-5.94-17.38-8.04
			c-6.02-2.14-12.32-3.57-18.7-3.98c-0.8-0.09-1.6-0.03-2.4-0.06c-0.8,0-1.6-0.04-2.4,0.05l-2.39,0.17l-2.37,0.38
			C618.04,374.5,614.97,375.54,612.21,377.17z M612.21,377.17c2.75-1.65,5.82-2.72,8.95-3.35l2.37-0.4l2.4-0.19
			c0.8-0.09,1.6-0.06,2.4-0.07c0.8,0.02,1.6-0.04,2.4,0.04c6.4,0.36,12.73,1.75,18.78,3.85c12.14,4.17,23.48,10.5,33.81,18.13
			c10.33,7.63,19.79,16.52,27.85,26.62c8.03,10.09,14.74,21.4,19.17,33.64c4.47,12.22,6.98,25.13,7.76,38.13
			c0.74,13-0.09,26.1-2.51,38.92c-1.21,6.41-2.79,12.75-4.75,18.99c-1.97,6.23-4.28,12.38-7.1,18.3
			c-5.63,11.83-12.82,23.17-22.76,32.32c-5,4.5-10.75,8.41-17.3,10.85c-6.54,2.48-13.9,3.03-20.66,1.84
			c-3.41-0.56-6.71-1.51-9.87-2.7c-3.17-1.19-6.22-2.64-9.13-4.28c-5.84-3.25-11.18-7.22-16.13-11.57
			c-2.46-2.19-4.82-4.48-7.07-6.87c-2.24-2.4-4.38-4.89-6.43-7.45c-4.07-5.14-7.75-10.59-10.88-16.36
			c-1.57-2.88-3.02-5.82-4.22-8.97c-1.18-3.14-2.05-6.38-2.66-9.62c-1.21-6.48-1.67-12.95-1.95-19.39
			c-0.52-12.89-0.12-25.73,0.36-38.54c0.51-12.81,1.14-25.6,1.74-38.4c0.61-12.8,1.34-25.6,2.71-38.34
			c0.72-6.36,1.59-12.73,3.21-18.94c0.82-3.09,1.84-6.15,3.29-9.02c0.77-1.4,1.58-2.8,2.63-4.02
			C609.65,379.11,610.84,378.02,612.21,377.17z" />
      <path d="M732.89,371.85c12.48,17.39,23.56,35.83,33.08,55.1l3.51,7.26c1.15,2.43,2.18,4.91,3.27,7.37l1.62,3.7l0.81,1.85
			l0.74,1.88l2.97,7.51c3.81,10.07,7.21,20.32,9.94,30.76l1.06,3.91c0.35,1.3,0.62,2.63,0.94,3.94c0.6,2.63,1.25,5.25,1.81,7.9
			l1.53,7.96c0.51,2.65,0.85,5.34,1.29,8c1.59,10.69,2.56,21.49,2.97,32.3c0.37,10.81,0.06,21.57-0.12,32.24
			c-0.08,5.33-0.17,10.65,0,15.86c0.1,2.58,0.26,5.18,0.65,7.51c0.19,1.14,0.49,2.28,0.8,2.9c0.13,0.3,0.3,0.39,0.05,0.19
			c-0.12-0.08-0.38-0.21-0.61-0.24c-0.25-0.02-0.45-0.01-0.55,0.04c-0.17,0.07,0.09-0.03,0.36-0.3c0.29-0.27,0.62-0.62,0.95-1.05
			c0.67-0.84,1.33-1.87,1.96-2.93c1.27-2.14,2.43-4.47,3.55-6.82c2.23-4.73,4.3-9.63,6.33-14.55c4.06-9.84,7.94-19.82,11.99-29.73
			c4.05-9.91,8.17-19.81,12.44-29.65c2.13-4.92,4.29-9.83,6.51-14.71c2.22-4.88,4.53-9.73,6.83-14.57
			c18.49-38.72,39.93-76.02,64.36-111.18c-21.94,36.75-41.89,74.57-59.33,113.5c-4.34,9.74-8.54,19.54-12.64,29.39
			c-4.09,9.85-8.04,19.77-11.92,29.72c-3.9,9.95-7.79,19.9-11.81,29.86c-2.03,4.98-4.09,9.95-6.39,14.91
			c-1.17,2.48-2.37,4.95-3.82,7.42c-0.73,1.24-1.5,2.48-2.49,3.73c-0.49,0.63-1.05,1.27-1.75,1.91c-0.71,0.63-1.55,1.34-3.01,1.82
			c-0.74,0.22-1.61,0.36-2.53,0.22c-0.89-0.11-1.8-0.48-2.46-0.96c-1.36-0.98-1.94-2.06-2.39-2.94c-0.83-1.8-1.11-3.3-1.38-4.79
			c-0.48-2.95-0.61-5.71-0.71-8.46c-0.16-5.49-0.04-10.86,0.08-16.23c0.26-10.71,0.53-21.35,0.34-31.93
			c-0.44-21.13-3.24-42.22-8.23-62.82c-4.92-20.63-12.03-40.74-20.65-60.21C754.27,408.91,744.07,390.1,732.89,371.85z" />
      <path d="M1045.26,389.6c-4.6-1.3-9.23-2.49-13.89-3.49c-4.65-1.03-9.33-1.93-14.03-2.63c-9.4-1.41-18.88-2.17-28.3-1.79
			c-9.4,0.34-18.76,1.77-27.51,4.86c-4.36,1.55-8.58,3.47-12.52,5.82c-1.01,0.55-1.94,1.22-2.9,1.84c-0.97,0.61-1.87,1.32-2.79,2
			c-0.45,0.35-0.94,0.68-1.35,1.03l-1.23,1.06c-0.4,0.36-0.77,0.77-1.16,1.15l-0.57,0.58l-0.53,0.63c-2.88,3.32-5.08,7.31-6.91,11.5
			c-1.83,4.2-3.32,8.61-4.58,13.11c-2.51,9.01-4.26,18.32-5.75,27.68c-2.98,18.73-5.1,37.69-7.1,56.67
			c-2.06,18.96-4.11,37.99-5.91,56.94c-0.88,9.47-1.67,18.95-1.93,28.36c-0.07,4.69-0.11,9.4,0.35,13.94
			c0.43,4.55,1.27,8.98,3.17,12.77l0.8,1.37l0.4,0.68l0.48,0.64c0.32,0.42,0.62,0.86,0.96,1.28l1.1,1.2
			c1.52,1.56,3.2,3.01,5.03,4.25c3.66,2.49,7.87,4.21,12.28,5.35c4.42,1.13,9.04,1.66,13.69,1.78c4.66,0.12,9.35-0.13,14.03-0.69
			c9.37-1.07,18.65-3.18,27.79-5.81c4.57-1.32,9.1-2.79,13.59-4.39c4.5-1.58,8.97-3.28,13.35-5.18c-8.48,4.43-17.3,8.22-26.34,11.44
			c-9.05,3.21-18.36,5.78-27.91,7.39c-4.78,0.8-9.64,1.24-14.53,1.32c-4.89,0.06-9.84-0.29-14.73-1.33
			c-4.88-1.03-9.7-2.83-14.03-5.59c-2.17-1.38-4.17-3-6.03-4.81l-1.36-1.41c-0.43-0.5-0.83-1.03-1.24-1.55l-0.61-0.78
			c-0.19-0.27-0.36-0.56-0.54-0.84l-1.05-1.7c-2.53-4.72-3.59-9.83-4.2-14.74c-0.62-4.95-0.64-9.82-0.65-14.68
			c0.1-9.69,0.73-19.28,1.45-28.84c0.76-9.55,1.72-19.09,2.66-28.59l2.9-28.53c1.05-9.51,2.15-19.01,3.36-28.52
			c1.22-9.5,2.52-19.01,4.18-28.49c1.69-9.48,3.62-18.95,6.41-28.3c1.41-4.67,3.02-9.32,5.13-13.83c2.12-4.49,4.68-8.9,8.19-12.72
			l0.65-0.72l0.7-0.68c0.47-0.44,0.92-0.91,1.42-1.33l1.52-1.24c0.51-0.41,1.02-0.73,1.53-1.1c1.02-0.71,2.02-1.45,3.09-2.08
			c1.06-0.64,2.09-1.34,3.2-1.9c4.33-2.42,8.91-4.35,13.62-5.79c9.42-2.89,19.23-4,28.91-3.93c9.7,0.12,19.3,1.33,28.7,3.33
			c4.7,1,9.35,2.18,13.95,3.52C1036.23,386.43,1040.77,387.96,1045.26,389.6z" />
      <path d="M921.02,503.19c4.78-1.33,9.54-1.93,14.29-2.34c4.75-0.37,9.49-0.47,14.22-0.32c4.73,0.14,9.46,0.53,14.17,1.2
			c4.72,0.7,9.42,1.59,14.11,3.23c-4.78,1.34-9.54,1.94-14.29,2.35c-4.75,0.37-9.49,0.47-14.22,0.31
			c-4.73-0.15-9.46-0.54-14.17-1.21C930.42,505.71,925.71,504.82,921.02,503.19z" />
    </g>
  </g>
</svg>
