<?xml version="1.0" encoding="utf-8"?>
<!-- Generator: Adobe Illustrator 25.2.0, SVG Export Plug-In . SVG Version: 6.00 Build 0)  -->
<svg version="1.1" id="Layer_1" xmlns="http://www.w3.org/2000/svg" xmlns:xlink="http://www.w3.org/1999/xlink" x="0px" y="0px" viewBox="0 0 1500 1000" style="enable-background:new 0 0 1500 1000;" xml:space="preserve">
  <style type="text/css">
    .st0 {
      fill: #E6E6E6;
    }

    .st1 {
      fill: #FFFFFF;
    }

    .st2 {
      clip-path: url(#SVGID_2_);
      fill: #EEDACF;
    }

    .st3 {
      clip-path: url(#SVGID_2_);
      fill: #CC9C6B;
    }

    .st4 {
      fill: #FFDAEE;
    }

    .st5 {
      clip-path: url(#SVGID_4_);
      fill: #CC9C6B;
    }

    .st6 {
      clip-path: url(#SVGID_4_);
      fill: #738593;
    }

    .st7 {
      clip-path: url(#SVGID_6_);
      fill: #EEDACF;
    }

    .st8 {
      clip-path: url(#SVGID_6_);
      fill: #CC9C6B;
    }

    .st9 {
      clip-path: url(#SVGID_8_);
      fill: #CC9C6B;
    }

    .st10 {
      clip-path: url(#SVGID_8_);
      fill: #738593;
    }
  </style>
  <rect id="BG_7_" class="st0" width="1500" height="1000" />
  <g>
    <rect id="BG_4_" x="352" y="111" class="st1" width="790" height="790" />
    <g>
      <defs>
        <rect id="SVGID_5_" x="352" y="111" width="790" height="790" />
      </defs>
      <clipPath id="SVGID_2_">
        <use xlink:href="#SVGID_5_" style="overflow:visible;" />
      </clipPath>
      <path class="st2" d="M331,475c15.63,1.92,16.1-53.54,78-119c55-58.17,124.66-88.43,159-103c62.48-26.51,70.99-17.22,104-39
			c56.79-37.47,109.24-116.19,91-164C733.49-27.35,499.93-73.75,369,38C208.35,175.12,295.59,470.66,331,475z" />
      <path class="st3" d="M723.5,933.5c20.1-32.68,27.84-51.69,59-99c29.86-45.34,44.8-68.01,64-86c31.41-29.43,66.03-44.35,134-73
			c82.1-34.6,82.24-24.68,109-44c69.16-49.94,88.39-130.79,90-138c12.28-55.04-6.23-71.84,9-95c35.39-53.83,192.26-49.65,278,19
			c131.6,105.38,126.63,387.55,7,556c-229.03,322.49-841.99,177.1-856,98C613.45,1048.66,660.22,1036.38,723.5,933.5z" />
    </g>
    <path class="st4" d="M701,447.22c-11.04-21.56-27-53.69-23-95c1.7-17.59,3.44-35.57,18-47c16.46-12.93,43.4-12.86,58-1
		c15.56,12.65,22.77,43.32,23.89,48.07c2.01,8.54,2.6,14.73,7.11,16.93c7.16,3.48,17.7-9.11,29-17c28.22-19.72,75.15-19.92,88-2
		c12.5,17.43-7.77,51.27-16,65c-21.45,35.81-51.9,52.48-85.59,70.93c-24.8,13.58-37.49,20.31-51.41,17.07
		C727.34,498.18,716,476.49,701,447.22z" />
    <path d="M723.5,509.5c-9.11-10.21-17.54-21.06-25.18-32.46l-1.44-2.13l-1.38-2.17l-2.75-4.35l-2.64-4.42l-1.32-2.21l-1.26-2.25
		c-3.41-5.96-6.51-12.1-9.45-18.31c-2.93-6.22-5.62-12.55-8.02-19c-2.44-6.45-4.52-12.99-6.63-19.5
		c-2.11-6.52-4.15-13.09-5.88-19.76c-1.73-6.67-3.3-13.42-4.18-20.32c-0.92-6.89-1.24-13.9-0.7-20.91
		c0.49-7.01,2.07-13.98,4.6-20.57c0.31-0.83,0.6-1.66,0.93-2.48l1.13-2.4c0.78-1.58,1.44-3.23,2.37-4.74
		c0.87-1.54,1.72-3.09,2.73-4.54l1.46-2.21c0.51-0.72,1.05-1.42,1.58-2.12c4.25-5.64,9.23-10.71,14.76-15.1
		c11.05-8.77,24.4-14.79,38.51-16.81c7.05-1,14.23-1.04,21.25-0.12c7.04,0.86,13.93,2.62,20.58,5.06c6.62,2.5,13.01,5.67,18.9,9.71
		c5.87,4.05,11.34,8.89,15.6,14.93c2.12,3.02,3.92,6.35,5.11,10c1.22,3.62,1.64,7.65,1.35,11.42c-0.28,3.8-1.17,7.41-2.25,10.82
		c-0.54,1.7-1.13,3.36-1.69,4.96c-0.55,1.57-1.11,3.19-1.33,4.38c-0.06,0.29-0.07,0.52-0.08,0.65c0,0.08,0.03,0.1-0.09-0.25
		c-0.12-0.32-0.52-0.68-0.81-0.81c-0.31-0.16-0.52-0.13-0.51-0.13c0.06,0,0.63-0.16,1.18-0.44c0.57-0.28,1.2-0.65,1.84-1.07
		c2.56-1.7,5.17-3.89,7.79-6.05c2.62-2.18,5.27-4.41,8.12-6.56c2.86-2.14,5.84-4.1,8.91-5.89c12.29-7.14,25.84-11.78,39.84-13.96
		c7.01-1.04,14.15-1.51,21.34-0.91c7.16,0.59,14.42,2.12,21.18,5.45c3.35,1.7,6.45,3.81,9.29,6.15c2.85,2.34,5.36,5,7.72,7.74
		c2.36,2.75,4.41,5.72,6.35,8.73c1.89,3.04,3.61,6.18,5.15,9.4c6.07,12.89,9.56,26.92,9.97,41.21c0.14,3.57-0.05,7.16-0.34,10.74
		c-0.38,3.58-0.91,7.15-1.78,10.67c-0.88,3.51-1.94,7.01-3.42,10.36c-0.66,1.71-1.56,3.32-2.36,4.97c-0.95,1.58-1.8,3.21-2.9,4.71
		c-1,1.56-2.18,2.99-3.34,4.43c-1.24,1.37-2.45,2.78-3.83,4.02c-1.31,1.31-2.77,2.45-4.2,3.62c-1.5,1.07-2.97,2.19-4.54,3.12
		c-1.53,1.01-3.16,1.84-4.76,2.72c-1.64,0.77-3.26,1.6-4.94,2.26c-3.33,1.42-6.73,2.53-10.16,3.5c-6.86,1.91-13.8,3.13-20.73,3.97
		c-6.93,0.84-13.85,1.35-20.75,1.68c-13.8,0.65-27.51,0.71-41.17,0.94c-13.66,0.21-27.28,0.59-40.83,1.49
		c-13.55,0.91-27.03,2.41-40.33,4.82c-13.3,2.41-26.4,5.81-39.09,10.33c-12.67,4.56-24.92,10.29-36.44,17.25
		c-5.75,3.48-11.36,7.22-16.75,11.26c-5.34,4.08-10.65,8.35-15.66,12.85c-10.06,9-19.33,18.89-27.4,29.68
		c-8.05,10.79-14.87,22.51-19.79,34.99c-4.91,12.47-7.83,25.75-8.07,39.16c-0.31,13.4,1.95,26.85,6.26,39.61
		c4.36,12.76,10.71,24.85,18.43,35.99c7.79,11.11,16.87,21.32,26.89,30.54c4.98,4.64,10.23,9,15.65,13.13
		c2.69,2.1,5.48,4.06,8.26,6.04c1.4,0.98,2.83,1.91,4.24,2.87l2.13,1.42l2.16,1.37c11.49,7.39,23.64,13.75,36.14,19.32
		c-12.66-5.2-25.02-11.21-36.77-18.29c-5.88-3.53-11.63-7.3-17.17-11.36c-5.56-4.03-10.97-8.29-16.11-12.86
		c-10.37-9.05-19.76-19.25-27.93-30.39c-8.09-11.19-14.86-23.42-19.61-36.49c-4.69-13.08-7.25-27-7.15-40.98
		c0.03-13.99,2.86-27.92,7.77-40.97c4.89-13.09,11.86-25.31,20.04-36.54c8.21-11.23,17.63-21.52,27.86-30.88
		c5.12-4.71,10.43-9.09,15.93-13.38c5.51-4.24,11.27-8.17,17.18-11.84c5.91-3.68,12.06-6.96,18.32-9.99
		c6.27-3.01,12.68-5.74,19.21-8.12c13.07-4.76,26.53-8.35,40.15-10.91c13.62-2.57,27.38-4.18,41.13-5.2
		c13.76-1.03,27.52-1.39,41.23-1.65c13.71-0.26,27.37-0.36,40.92-1.03c6.77-0.34,13.51-0.85,20.17-1.68
		c6.66-0.82,13.23-2,19.55-3.78c3.16-0.9,6.27-1.92,9.23-3.2c1.51-0.59,2.93-1.33,4.39-2.02c1.39-0.78,2.83-1.5,4.15-2.38
		c1.37-0.81,2.62-1.78,3.91-2.7c1.21-1.01,2.46-1.98,3.56-3.09c1.17-1.05,2.18-2.25,3.24-3.41c0.97-1.23,1.98-2.44,2.83-3.76
		c0.94-1.26,1.67-2.68,2.49-4.02c0.69-1.43,1.48-2.8,2.05-4.3c1.3-2.91,2.23-5.99,3.03-9.1c0.78-3.12,1.26-6.33,1.62-9.56
		c0.27-3.24,0.45-6.5,0.33-9.77c-0.33-13.08-3.55-26.19-9.12-38.06c-1.41-2.96-2.98-5.84-4.69-8.61c-1.76-2.74-3.6-5.42-5.7-7.87
		c-2.09-2.44-4.3-4.79-6.74-6.8c-2.43-2.02-5.03-3.78-7.77-5.19c-5.53-2.76-11.9-4.17-18.35-4.71c-6.47-0.54-13.08-0.19-19.6,0.74
		c-13.05,1.93-25.87,6.23-37.3,12.78c-2.85,1.64-5.61,3.43-8.25,5.37c-2.63,1.96-5.23,4.11-7.89,6.29c-2.68,2.17-5.33,4.4-8.48,6.47
		c-0.8,0.52-1.64,1.02-2.61,1.49c-0.99,0.45-2.03,0.94-3.69,1.11c-0.83,0.07-1.92-0.01-3.01-0.51c-1.08-0.47-2.09-1.49-2.58-2.58
		c-0.52-1.12-0.54-1.99-0.56-2.75c0.01-0.72,0.09-1.35,0.2-1.89c0.44-2.18,1.08-3.78,1.65-5.44c0.59-1.63,1.15-3.19,1.66-4.75
		c1.01-3.1,1.77-6.18,2.01-9.22c0.24-3.04-0.04-5.96-0.98-8.84c-0.92-2.87-2.36-5.65-4.14-8.25c-3.58-5.2-8.45-9.67-13.79-13.43
		c-5.36-3.77-11.28-6.8-17.43-9.2c-12.33-4.71-25.81-6.8-38.84-5.06c-13.05,1.72-25.58,7.17-36.09,15.22
		c-10.49,8.07-19.1,18.77-23.9,31.13c-2.47,6.14-4.06,12.65-4.63,19.29c-0.62,6.64-0.39,13.36,0.35,20.05
		c0.72,6.7,2.12,13.35,3.69,19.95c1.58,6.61,3.47,13.16,5.44,19.7c1.99,6.55,3.93,13.1,6.2,19.5c2.26,6.42,4.76,12.77,7.52,19
		c2.76,6.23,5.69,12.4,8.94,18.4l1.2,2.26l1.25,2.23l2.51,4.46l2.63,4.39l1.32,2.2l1.37,2.16
		C706.6,487.95,714.69,499.02,723.5,509.5z" />
  </g>
</svg>
